# xmcd
#
# Track frame offsets: 
#        150
#        16115
#        34745
#        50945
#        71438
#        92528
#        104045
#        119295
#        135900
#        157148
#
# Disc length: 2319 seconds
#
# Revision: 4
# Processed by: cddbd v1.5.2PL0 Copyright (c) Steve Scherf et al.
# Submitted via: ExactAudioCopy v1.3
#
DISCID=83090d0a
DTITLE=George Strait - One Step At A Time
DYEAR=1998
DGENRE=Country
TTITLE0=I Just Want To Dance With You
TTITLE1=One Step At A Time
TTITLE2=True
TTITLE3=Remember The Alamo
TTITLE4=Maria
TTITLE5=We Really Shouldn't Be Doing This
TTITLE6=Why Not Now
TTITLE7=That's The Breaks
TTITLE8=Neon Row
TTITLE9=You Haven't Left Me Yet
EXTD=YEAR: 1998
EXTT0=
EXTT1=
EXTT2=
EXTT3=
EXTT4=
EXTT5=
EXTT6=
EXTT7=
EXTT8=
EXTT9=
PLAYORDER=
